<?xml version="1.0" encoding="UTF-8"?>
<svg version="1.1" xmlns="http://www.w3.org/2000/svg" xmlns:xlink="http://www.w3.org/1999/xlink">
  <g>
    <path d="M0,0 M10,0 L10,40 M11,0 L11,40 M13,0 L13,40 M16,0 L16,40 M21,0 L21,40 M24,0 L24,40 M25,0 L25,40 M30,0 L30,40 M32,0 L32,40 M35,0 L35,40 M36,0 L36,40 M37,0 L37,40 M38,0 L38,40 M40,0 L40,40 M43,0 L43,40 M46,0 L46,40 M47,0 L47,40 M48,0 L48,40 M49,0 L49,40 M51,0 L51,40 M54,0 L54,40 M56,0 L56,40 M59,0 L59,40 M60,0 L60,40 M61,0 L61,40 M62,0 L62,40 M65,0 L65,40 M67,0 L67,40 M68,0 L68,40 M69,0 L69,40 M70,0 L70,40 M73,0 L73,40 M76,0 L76,40 M77,0 L77,40 M78,0 L78,40 M81,0 L81,40 M84,0 L84,40 M85,0 L85,40 M87,0 L87,40 M89,0 L89,40 M90,0 L90,40 M91,0 L91,40 M94,0 L94,40 M95,0 L95,40 M98,0 L98,40 M100,0 L100,40 M101,0 L101,40 M102,0 L102,40 M105,0 L105,40 M106,0 L106,40 M109,0 L109,40 M114,0 L114,40 M115,0 L115,40 M118,0 L118,40 M120,0 L120,40 M125,0 L125,40 M126,0 L126,40 M128,0 L128,40 M131,0 L131,40 M132,0 L132,40 M137,0 L137,40 M139,0 L139,40 M142,0 L142,40 M147,0 L147,40 M149,0 L149,40 M150,0 L150,40 M153,0 L153,40 M156,0 L156,40 M157,0 L157,40 M162,0 L162,40 M164,0 L164,40 M166,0 L166,40 M167,0 L167,40 M170,0 L170,40 M175,0 L175,40 M176,0 L176,40 M181,0 L181,40 M183,0 L183,40 M186,0 L186,40 M189,0 L189,40 M190,0 L190,40 M193,0 L193,40 M194,0 L194,40 M195,0 L195,40 M197,0 L197,40 M201,0 L201,40 M202,0 L202,40 M203,0 L203,40 M204,0 L204,40 M206,0 L206,40 M208,0 L208,40 M211,0 L211,40 M214,0 L214,40 M215,0 L215,40 M216,0 L216,40 M217,0 L217,40 M219,0 L219,40 M222,0 L222,40 M223,0 L223,40 M225,0 L225,40 M230,0 L230,40 M232,0 L232,40 M235,0 L235,40 M236,0 L236,40 M237,0 L237,40 M238,0 L238,40 M241,0 L241,40 M242,0 L242,40 M246,0 L246,40 M247,0 L247,40 M248,0 L248,40 M250,0 L250,40 M252,0 L252,40 M253,0 L253,40 M263,0
" stroke="#333333" ></path>
  </g>
</svg>
